<svg width="89" height="25" viewBox="0 0 89 25" fill="none" xmlns="http://www.w3.org/2000/svg">
<path d="M1.29984 0.130008H20.2798V16.874H12.9478V19.838H21.5798V23.79H-0.000156246V19.838H8.63184V16.874H1.29984V0.130008ZM5.61584 12.922H15.9638V4.08201H5.61584V12.922ZM31.132 8.46386e-06C32.7613 8.46386e-06 34.0873 0.199342 35.11 0.598009C36.1327 0.979342 36.93 1.48201 37.502 2.10601C38.0913 2.71268 38.49 3.38868 38.698 4.13401C38.9233 4.87934 39.036 5.60734 39.036 6.31801V17.602C39.036 18.3127 38.9233 19.0407 38.698 19.786C38.49 20.5487 38.0913 21.2333 37.502 21.84C36.93 22.4467 36.1327 22.9407 35.11 23.322C34.0873 23.7207 32.7613 23.92 31.132 23.92C29.5027 23.92 28.1767 23.7207 27.154 23.322C26.1313 22.9407 25.3253 22.4467 24.736 21.84C24.164 21.2333 23.7653 20.5487 23.54 19.786C23.332 19.0407 23.228 18.3127 23.228 17.602V6.31801C23.228 5.60734 23.332 4.87934 23.54 4.13401C23.7653 3.38868 24.164 2.71268 24.736 2.10601C25.3253 1.48201 26.1313 0.979342 27.154 0.598009C28.1767 0.199342 29.5027 8.46386e-06 31.132 8.46386e-06ZM40.83 0.130008H45.146V9.25601H48.37V13.208H45.146V23.79H40.83V0.130008ZM31.132 20.046C31.6 20.046 32.042 20.0027 32.458 19.916C32.8913 19.8293 33.264 19.682 33.576 19.474C33.9053 19.2487 34.1653 18.9627 34.356 18.616C34.564 18.252 34.668 17.8013 34.668 17.264V6.65601C34.668 6.11868 34.564 5.67668 34.356 5.33001C34.1653 4.96601 33.9053 4.68001 33.576 4.47201C33.264 4.24668 32.8913 4.09068 32.458 4.00401C32.042 3.91734 31.6 3.87401 31.132 3.87401C30.664 3.87401 30.2133 3.91734 29.78 4.00401C29.364 4.09068 28.9913 4.24668 28.662 4.47201C28.35 4.68001 28.09 4.96601 27.882 5.33001C27.6913 5.67668 27.596 6.11868 27.596 6.65601V17.264C27.596 17.8013 27.6913 18.252 27.882 18.616C28.09 18.9627 28.35 19.2487 28.662 19.474C28.9913 19.682 29.364 19.8293 29.78 19.916C30.2133 20.0027 30.664 20.046 31.132 20.046Z" fill="black"/>
<path d="M61.006 23.79H49.488V0.130008H61.006V4.08201H53.804V9.90601H60.98V13.858H53.804V19.838H61.006V23.79ZM63.19 0.130008H67.506V23.79H63.19V0.130008ZM79.6689 9.15201H78.5509V14.17H74.2349V10.504H70.2829V6.55201H74.2349V4.08201H70.2829V0.130008H78.5509V5.20001H79.6689V0.130008H83.5169V14.17H79.6689V9.15201ZM79.7209 20.67L73.1429 24.778L70.4909 21.762L77.5109 17.316V15.21H81.8269V17.264L88.9509 21.762L86.2989 24.778L79.7209 20.67ZM84.4529 0.130008H88.3009V15.47H84.4529V0.130008Z" fill="#2F0FFF"/>
</svg>
