<svg width="46" height="46" viewBox="0 0 46 46" fill="none" xmlns="http://www.w3.org/2000/svg">
<g clip-path="url(#clip0_14_5224)">
<g clip-path="url(#clip1_14_5224)">
<path d="M42.782 12.42C42.6899 12.2908 42.5684 12.1853 42.4276 12.1123C42.2868 12.0393 42.1306 12.0008 41.972 12H10.712L9.99296 7.82997C9.95251 7.59535 9.82968 7.38286 9.64655 7.23071C9.46342 7.07856 9.23202 6.99675 8.99396 6.99997H3.99996C3.80208 6.99973 3.60859 7.05826 3.44402 7.16814C3.27945 7.27802 3.15123 7.4343 3.0756 7.61716C2.99997 7.80002 2.98035 8.00121 3.01923 8.19524C3.0581 8.38926 3.15372 8.56737 3.29396 8.70697C3.48115 8.89437 3.73509 8.99976 3.99996 8.99997H8.15596L12.002 31.17C12.018 31.225 12.038 31.279 12.062 31.33C12.075 31.39 12.099 31.448 12.132 31.5C12.166 31.55 12.202 31.596 12.242 31.64C12.2726 31.6881 12.3096 31.7318 12.352 31.77C12.4005 31.8078 12.4544 31.8382 12.512 31.86C12.554 31.889 12.597 31.916 12.642 31.94C12.754 31.98 12.872 32.001 12.992 32H35.969C36.1871 32.0117 36.403 31.9515 36.5837 31.8287C36.7643 31.7058 36.8997 31.5271 36.969 31.32L42.962 13.32C43.006 13.1665 43.0126 13.0047 42.9813 12.8481C42.95 12.6915 42.8816 12.5447 42.782 12.42ZM35.258 30H13.848L11.181 14H40.583L35.258 30ZM18 34C17.2043 34 16.4412 34.316 15.8786 34.8787C15.316 35.4413 15 36.2043 15 37C15 37.7956 15.316 38.5587 15.8786 39.1213C16.4412 39.6839 17.2043 40 18 40C18.7956 40 19.5587 39.6839 20.1213 39.1213C20.6839 38.5587 21 37.7956 21 37C21 36.2043 20.6839 35.4413 20.1213 34.8787C19.5587 34.316 18.7956 34 18 34ZM18 38C17.7347 38 17.4804 37.8946 17.2929 37.7071C17.1053 37.5195 17 37.2652 17 37C17 36.7348 17.1053 36.4804 17.2929 36.2929C17.4804 36.1053 17.7347 36 18 36C18.2652 36 18.5195 36.1053 18.7071 36.2929C18.8946 36.4804 19 36.7348 19 37C19 37.2652 18.8946 37.5195 18.7071 37.7071C18.5195 37.8946 18.2652 38 18 38ZM30.984 34C30.5855 33.9927 30.1895 34.0649 29.8192 34.2124C29.4489 34.3598 29.1117 34.5796 28.8273 34.8589C28.5429 35.1381 28.317 35.4712 28.1628 35.8388C28.0086 36.2063 27.9292 36.6009 27.9292 36.9995C27.9292 37.398 28.0086 37.7926 28.1628 38.1602C28.317 38.5277 28.5429 38.8608 28.8273 39.1401C29.1117 39.4193 29.4489 39.6391 29.8192 39.7866C30.1895 39.934 30.5855 40.0062 30.984 39.999C31.77 39.9846 32.519 39.6623 33.0698 39.1013C33.6206 38.5404 33.9292 37.7856 33.9292 36.9995C33.9292 36.2133 33.6206 35.4586 33.0698 34.8976C32.519 34.3366 31.77 34.0143 30.984 34ZM30.984 38C30.7187 38 30.4644 37.8946 30.2769 37.7071C30.0893 37.5195 29.984 37.2652 29.984 37C29.984 36.7348 30.0893 36.4804 30.2769 36.2929C30.4644 36.1053 30.7187 36 30.984 36C31.2492 36 31.5035 36.1053 31.6911 36.2929C31.8786 36.4804 31.984 36.7348 31.984 37C31.984 37.2652 31.8786 37.5195 31.6911 37.7071C31.5035 37.8946 31.2492 38 30.984 38Z" fill="#242428"/>
<path d="M24.987 26C25.1184 26.0003 25.2485 25.9746 25.37 25.9244C25.4914 25.8743 25.6018 25.8006 25.6947 25.7077C25.7876 25.6148 25.8612 25.5044 25.9114 25.383C25.9615 25.2616 25.9872 25.1314 25.987 25V19C25.9912 18.8661 25.9685 18.7327 25.9202 18.6077C25.8718 18.4828 25.7989 18.3688 25.7057 18.2725C25.6124 18.1763 25.5008 18.0998 25.3774 18.0476C25.2541 17.9953 25.1215 17.9684 24.9875 17.9684C24.8535 17.9684 24.7209 17.9953 24.5975 18.0476C24.4741 18.0998 24.3625 18.1763 24.2693 18.2725C24.176 18.3688 24.1031 18.4828 24.0548 18.6077C24.0065 18.7327 23.9837 18.8661 23.988 19V25C23.988 25.2652 24.0933 25.5196 24.2809 25.7071C24.4684 25.8946 24.7228 26 24.988 26H24.987ZM30.983 26C31.1144 26.0003 31.2445 25.9746 31.366 25.9244C31.4874 25.8743 31.5978 25.8006 31.6907 25.7077C31.7836 25.6148 31.8572 25.5044 31.9074 25.383C31.9576 25.2616 31.9832 25.1314 31.983 25V19C31.9872 18.8661 31.9645 18.7327 31.9162 18.6077C31.8678 18.4828 31.7949 18.3688 31.7017 18.2725C31.6084 18.1763 31.4968 18.0998 31.3734 18.0476C31.2501 17.9953 31.1175 17.9684 30.9835 17.9684C30.8495 17.9684 30.7169 17.9953 30.5935 18.0476C30.4701 18.0998 30.3585 18.1763 30.2653 18.2725C30.172 18.3688 30.0991 18.4828 30.0508 18.6077C30.0025 18.7327 29.9797 18.8661 29.984 19V25C29.984 25.2652 30.0893 25.5196 30.2769 25.7071C30.4644 25.8946 30.7178 26 30.983 26ZM18.995 26C19.1264 26.0003 19.2565 25.9746 19.378 25.9244C19.4994 25.8743 19.6098 25.8006 19.7027 25.7077C19.7956 25.6148 19.8692 25.5044 19.9194 25.383C19.9695 25.2616 19.9952 25.1314 19.995 25V19C19.9947 18.8025 19.936 18.6094 19.8262 18.4452C19.7163 18.281 19.5603 18.153 19.3778 18.0774C19.1953 18.0018 18.9945 17.9819 18.8007 18.0203C18.607 18.0586 18.4289 18.1535 18.289 18.293C18.1014 18.4805 17.996 18.7348 17.996 19V25C17.996 25.2652 18.1013 25.5196 18.2889 25.7071C18.4764 25.8946 18.7298 26 18.995 26Z" fill="#242428"/>
</g>
</g>
<defs>
<clipPath id="clip0_14_5224">
<rect width="46" height="46" fill="white"/>
</clipPath>
<clipPath id="clip1_14_5224">
<rect width="668" height="629" fill="white" transform="translate(-586 -220)"/>
</clipPath>
</defs>
</svg>
