<svg width="9" height="9" viewBox="0 0 9 9" fill="none" xmlns="http://www.w3.org/2000/svg">
<path fill-rule="evenodd" clip-rule="evenodd" d="M7.85285 0.895997C7.92723 0.970296 7.98624 1.05853 8.02649 1.15565C8.06675 1.25276 8.08748 1.35686 8.08748 1.462C8.08748 1.56713 8.06675 1.67123 8.02649 1.76835C7.98624 1.86547 7.92723 1.9537 7.85285 2.028L5.21985 4.662L7.85485 7.296C7.92918 7.37033 7.98814 7.45857 8.02836 7.55568C8.06859 7.65279 8.08929 7.75688 8.08929 7.862C8.08929 7.96711 8.06859 8.0712 8.02836 8.16831C7.98814 8.26543 7.92918 8.35367 7.85485 8.428C7.78052 8.50233 7.69228 8.56129 7.59516 8.60151C7.49805 8.64174 7.39396 8.66244 7.28885 8.66244C7.18373 8.66244 7.07965 8.64174 6.98253 8.60151C6.88542 8.56129 6.79718 8.50233 6.72285 8.428L4.08785 5.793L1.45385 8.428C1.30373 8.57811 1.10014 8.66244 0.887847 8.66244C0.675556 8.66244 0.47196 8.57811 0.321847 8.428C0.171735 8.27788 0.0874024 8.07429 0.0874024 7.862C0.0874024 7.64971 0.171735 7.44611 0.321847 7.296L2.95685 4.662L0.321847 2.028C0.247519 1.95367 0.188559 1.86543 0.148333 1.76831C0.108106 1.6712 0.0874023 1.56711 0.0874023 1.462C0.0874023 1.35688 0.108106 1.25279 0.148333 1.15568C0.188559 1.05857 0.247519 0.970325 0.321847 0.895997C0.396175 0.821669 0.484416 0.762709 0.58153 0.722483C0.678645 0.682257 0.782731 0.661552 0.887847 0.661552C0.992963 0.661552 1.09705 0.682257 1.19416 0.722483C1.29128 0.762709 1.37952 0.821669 1.45385 0.895997L4.08785 3.531L6.72185 0.895997C6.87186 0.746082 7.07526 0.661868 7.28735 0.661868C7.49943 0.661868 7.70283 0.746082 7.85285 0.895997Z" fill="#4154FF" fill-opacity="0.5"/>
</svg>
