<svg width="20" height="19" viewBox="0 0 20 19" fill="none" xmlns="http://www.w3.org/2000/svg">
<g clip-path="url(#clip0_25_17222)">
<g clip-path="url(#clip1_25_17222)">
<path d="M18.1701 9.9376C18.1701 9.35213 18.1179 8.78961 18.0199 8.25H10.25V11.441H14.6897C14.4982 12.4725 13.9174 13.3456 13.0433 13.9311V16.0006H15.7094C17.2696 14.565 18.1701 12.4496 18.1701 9.9376Z" fill="#3E82F1"/>
<path d="M10.2512 18.0008C12.4783 18.0008 14.3464 17.2624 15.7114 16.0017L13.0454 13.9321C12.307 14.4269 11.3616 14.72 10.2521 14.72C8.10372 14.72 6.28424 13.2688 5.63561 11.3184H2.87891V13.4557C4.23573 16.152 7.02633 18.0008 10.2512 18.0008Z" fill="#32A753"/>
<path d="M5.63346 11.3174C5.46855 10.8227 5.37511 10.294 5.37511 9.7498C5.37511 9.20565 5.46855 8.67703 5.63346 8.18231V6.04492H2.87767C2.31882 7.15896 2 8.41867 2 9.7498C2 11.081 2.31882 12.3407 2.87767 13.4548L5.63346 11.3174Z" fill="#F9BB00"/>
<path d="M10.2512 4.78074C11.4623 4.78074 12.5498 5.19667 13.4046 6.0148L15.771 3.64838C14.3418 2.31721 12.4747 1.5 10.2512 1.5C7.02633 1.5 4.23573 3.3488 2.87891 6.04503L5.63561 8.18241C6.28333 6.23193 8.10281 4.78074 10.2512 4.78074Z" fill="#E74133"/>
</g>
</g>
<defs>
<clipPath id="clip0_25_17222">
<rect width="20" height="20" fill="white" transform="translate(0 -0.5)"/>
</clipPath>
<clipPath id="clip1_25_17222">
<rect width="20" height="20" fill="white" transform="translate(0 -0.5)"/>
</clipPath>
</defs>
</svg>
