<svg width="79" height="17" viewBox="0 0 79 17" fill="none" xmlns="http://www.w3.org/2000/svg">
<path d="M-0.000257805 0.0899988H8.78374V16.11H-0.000257805V0.0899988ZM2.08774 14.274H6.69574V1.926H2.08774V14.274ZM10.7457 0.0899988H12.8337V6.678H14.8857V8.514H12.8337V16.11H10.7457V0.0899988ZM28.0328 0.0899988H30.1208V16.11H28.0328V0.0899988ZM20.4188 -1.07288e-06C21.3188 -1.07288e-06 22.0508 0.125999 22.6148 0.377999C23.1908 0.63 23.6408 0.942 23.9648 1.314C24.2888 1.674 24.5108 2.064 24.6308 2.484C24.7508 2.892 24.8108 3.252 24.8108 3.564V12.636C24.8108 12.948 24.7508 13.308 24.6308 13.716C24.5108 14.136 24.2888 14.526 23.9648 14.886C23.6408 15.258 23.1908 15.57 22.6148 15.822C22.0508 16.074 21.3188 16.2 20.4188 16.2C19.5188 16.2 18.7808 16.074 18.2048 15.822C17.6408 15.57 17.1968 15.258 16.8728 14.886C16.5488 14.526 16.3268 14.136 16.2068 13.716C16.0868 13.308 16.0268 12.948 16.0268 12.636V3.564C16.0268 3.252 16.0868 2.892 16.2068 2.484C16.3268 2.064 16.5488 1.674 16.8728 1.314C17.1968 0.942 17.6408 0.63 18.2048 0.377999C18.7808 0.125999 19.5188 -1.07288e-06 20.4188 -1.07288e-06ZM20.4188 14.364C20.6468 14.364 20.8928 14.334 21.1568 14.274C21.4328 14.226 21.6848 14.124 21.9128 13.968C22.1528 13.824 22.3448 13.614 22.4888 13.338C22.6448 13.05 22.7228 12.678 22.7228 12.222V3.978C22.7228 3.522 22.6448 3.156 22.4888 2.88C22.3448 2.592 22.1528 2.376 21.9128 2.232C21.6848 2.076 21.4328 1.974 21.1568 1.926C20.8928 1.866 20.6468 1.836 20.4188 1.836C20.1788 1.836 19.9268 1.866 19.6628 1.926C19.3988 1.974 19.1468 2.076 18.9068 2.232C18.6788 2.376 18.4868 2.592 18.3308 2.88C18.1868 3.156 18.1148 3.522 18.1148 3.978V12.222C18.1148 12.678 18.1868 13.05 18.3308 13.338C18.4868 13.614 18.6788 13.824 18.9068 13.968C19.1468 14.124 19.3988 14.226 19.6628 14.274C19.9268 14.334 20.1788 14.364 20.4188 14.364ZM31.9638 0.0899988H41.3778V1.926H40.0278V14.274H41.3778V16.11H31.9638V14.274H33.3138V1.926H31.9638V0.0899988ZM40.8018 6.678H42.5478V0.0899988H44.6358V16.11H42.5478V8.514H40.8018V6.678ZM46.0398 0.0899988H48.1278V16.11H46.0398V0.0899988ZM35.4018 14.274H37.9398V1.926H35.4018V14.274ZM62.2398 0.0899988H64.3278V16.11H62.2398V0.0899988ZM54.6258 -1.07288e-06C55.5258 -1.07288e-06 56.2578 0.125999 56.8218 0.377999C57.3978 0.63 57.8478 0.942 58.1718 1.314C58.4958 1.674 58.7178 2.064 58.8378 2.484C58.9578 2.892 59.0178 3.252 59.0178 3.564V12.636C59.0178 12.948 58.9578 13.308 58.8378 13.716C58.7178 14.136 58.4958 14.526 58.1718 14.886C57.8478 15.258 57.3978 15.57 56.8218 15.822C56.2578 16.074 55.5258 16.2 54.6258 16.2C53.7258 16.2 52.9878 16.074 52.4118 15.822C51.8478 15.57 51.4038 15.258 51.0798 14.886C50.7558 14.526 50.5338 14.136 50.4138 13.716C50.2938 13.308 50.2338 12.948 50.2338 12.636V3.564C50.2338 3.252 50.2938 2.892 50.4138 2.484C50.5338 2.064 50.7558 1.674 51.0798 1.314C51.4038 0.942 51.8478 0.63 52.4118 0.377999C52.9878 0.125999 53.7258 -1.07288e-06 54.6258 -1.07288e-06ZM54.6258 14.364C54.8538 14.364 55.0998 14.334 55.3638 14.274C55.6398 14.226 55.8918 14.124 56.1198 13.968C56.3598 13.824 56.5518 13.614 56.6958 13.338C56.8518 13.05 56.9298 12.678 56.9298 12.222V3.978C56.9298 3.522 56.8518 3.156 56.6958 2.88C56.5518 2.592 56.3598 2.376 56.1198 2.232C55.8918 2.076 55.6398 1.974 55.3638 1.926C55.0998 1.866 54.8538 1.836 54.6258 1.836C54.3858 1.836 54.1338 1.866 53.8698 1.926C53.6058 1.974 53.3538 2.076 53.1138 2.232C52.8858 2.376 52.6938 2.592 52.5378 2.88C52.3938 3.156 52.3218 3.522 52.3218 3.978V12.222C52.3218 12.678 52.3938 13.05 52.5378 13.338C52.6938 13.614 52.8858 13.824 53.1138 13.968C53.3538 14.124 53.6058 14.226 53.8698 14.274C54.1338 14.334 54.3858 14.364 54.6258 14.364ZM66.3328 0.0899988H73.7848V1.926H71.1028V9.684L73.9468 14.508L72.4528 15.66L70.0948 11.538L67.7368 15.66L66.2428 14.508L69.0148 9.81V1.926H66.3328V0.0899988ZM76.6468 0.0899988H78.7348V16.11H76.6468V0.0899988Z" fill="black"/>
</svg>
