<svg width="24" height="24" viewBox="0 0 24 24" fill="none" xmlns="http://www.w3.org/2000/svg">
<g clip-path="url(#clip0_25_9360)">
<g clip-path="url(#clip1_25_9360)">
<path d="M16 20.5C15.9344 20.5008 15.8694 20.4878 15.8091 20.462C15.7489 20.4362 15.6947 20.398 15.65 20.35L7.65001 12.348C7.60218 12.3031 7.56405 12.2489 7.53799 12.1887C7.51193 12.1285 7.49849 12.0636 7.49849 11.998C7.49849 11.9324 7.51193 11.8675 7.53799 11.8073C7.56405 11.7471 7.60218 11.6929 7.65001 11.648L15.65 3.64497C15.6958 3.59824 15.7504 3.56105 15.8107 3.53556C15.8709 3.51007 15.9356 3.49677 16.001 3.49644C16.0665 3.49611 16.1313 3.50875 16.1918 3.53363C16.2523 3.55852 16.3073 3.59515 16.3536 3.64141C16.3998 3.68768 16.4365 3.74265 16.4613 3.80316C16.4862 3.86367 16.4989 3.92851 16.4985 3.99393C16.4982 4.05935 16.4849 4.12406 16.4594 4.18432C16.4339 4.24457 16.3967 4.29917 16.35 4.34496L8.71001 11.998L16.35 19.65C16.3978 19.6949 16.436 19.7491 16.462 19.8093C16.4881 19.8695 16.5015 19.9344 16.5015 20C16.5015 20.0656 16.4881 20.1305 16.462 20.1907C16.436 20.2509 16.3978 20.3051 16.35 20.35C16.3054 20.398 16.2512 20.4362 16.1909 20.462C16.1306 20.4878 16.0656 20.5008 16 20.5Z" fill="#242428"/>
</g>
<rect x="24" y="24" width="24" height="24" transform="rotate(180 24 24)" fill="white" fill-opacity="0.7" style="mix-blend-mode:saturation"/>
</g>
<defs>
<clipPath id="clip0_25_9360">
<rect width="24" height="24" fill="white" transform="matrix(-1 0 0 -1 24 24)"/>
</clipPath>
<clipPath id="clip1_25_9360">
<rect width="24" height="24" fill="white" transform="matrix(-1 0 0 -1 24 24)"/>
</clipPath>
</defs>
</svg>
