<svg width="24" height="24" viewBox="0 0 24 24" fill="none" xmlns="http://www.w3.org/2000/svg">
<g clip-path="url(#clip0_25_9368)">
<g clip-path="url(#clip1_25_9368)">
<path d="M7.99999 3.50003C8.06557 3.49924 8.13059 3.51217 8.19086 3.538C8.25114 3.56384 8.30535 3.602 8.34999 3.65004L16.35 11.652C16.3978 11.6969 16.4359 11.7511 16.462 11.8113C16.4881 11.8715 16.5015 11.9364 16.5015 12.002C16.5015 12.0676 16.4881 12.1325 16.462 12.1927C16.4359 12.2529 16.3978 12.3071 16.35 12.352L8.34999 20.355C8.3042 20.4018 8.2496 20.4389 8.18934 20.4644C8.12909 20.4899 8.06438 20.5032 7.99896 20.5036C7.93353 20.5039 7.86869 20.4913 7.80818 20.4664C7.74768 20.4415 7.6927 20.4049 7.64644 20.3586C7.60018 20.3123 7.56354 20.2574 7.53866 20.1968C7.51378 20.1363 7.50113 20.0715 7.50146 20.0061C7.50179 19.9406 7.51509 19.8759 7.54059 19.8157C7.56608 19.7554 7.60327 19.7008 7.64999 19.655L15.29 12.002L7.64999 4.35003C7.60216 4.30514 7.56404 4.25093 7.53798 4.19073C7.51192 4.13053 7.49847 4.06563 7.49847 4.00003C7.49847 3.93444 7.51192 3.86954 7.53798 3.80934C7.56404 3.74914 7.60216 3.69493 7.64999 3.65004C7.69464 3.602 7.74884 3.56384 7.80912 3.538C7.8694 3.51217 7.93442 3.49924 7.99999 3.50003Z" fill="#242428"/>
</g>
<rect width="24" height="24" fill="white" fill-opacity="0.7" style="mix-blend-mode:saturation"/>
</g>
<defs>
<clipPath id="clip0_25_9368">
<rect width="24" height="24" fill="white"/>
</clipPath>
<clipPath id="clip1_25_9368">
<rect width="24" height="24" fill="white"/>
</clipPath>
</defs>
</svg>
