<svg width="24" height="24" viewBox="0 0 24 24" fill="none" xmlns="http://www.w3.org/2000/svg">
<path d="M19.5 11.1341C19.652 11.2219 19.7782 11.3481 19.866 11.5001C19.9538 11.6521 20 11.8246 20 12.0001C20 12.1756 19.9538 12.3481 19.866 12.5001C19.7782 12.6521 19.652 12.7783 19.5 12.8661L6.75 20.2271C6.59798 20.3149 6.42554 20.3611 6.25001 20.3611C6.07447 20.3611 5.90203 20.3149 5.75001 20.2271C5.59799 20.1394 5.47175 20.0131 5.38398 19.8611C5.29621 19.7091 5.25 19.5366 5.25 19.3611V4.64011C5.25 4.46458 5.29621 4.29214 5.38398 4.14012C5.47175 3.9881 5.59799 3.86187 5.75001 3.77411C5.90203 3.68634 6.07447 3.64014 6.25001 3.64014C6.42554 3.64014 6.59798 3.68634 6.75 3.77411L19.5 11.1341Z" fill="white"/>
</svg>
