<svg width="14" height="14" viewBox="0 0 14 14" fill="none" xmlns="http://www.w3.org/2000/svg">
<mask id="mask0_27_18748" style="mask-type:luminance" maskUnits="userSpaceOnUse" x="0" y="0" width="14" height="14">
<path d="M14 0H0V14H14V0Z" fill="white"/>
</mask>
<g mask="url(#mask0_27_18748)">
<path d="M12.4749 7.00002C12.4749 10.0238 10.0237 12.475 6.9999 12.475C3.97614 12.475 1.5249 10.0238 1.5249 7.00002C1.5249 3.97626 3.97614 1.52502 6.9999 1.52502C10.0237 1.52502 12.4749 3.97626 12.4749 7.00002Z" stroke="#4154FF" stroke-width="1.3"/>
<path d="M5.25 5.687C5.24995 5.43064 5.30624 5.1774 5.41491 4.94522C5.52357 4.71303 5.68194 4.50756 5.87882 4.34337C6.07569 4.17917 6.30625 4.06026 6.55417 3.99504C6.8021 3.92983 7.06133 3.91991 7.31351 3.96599C7.73094 4.04599 8.10562 4.27356 8.36906 4.60708C8.63251 4.94061 8.76711 5.35782 8.74826 5.78242C8.74826 6.49809 8.25581 7.00673 7.60745 7.3373C7.32113 7.48788 7.10342 7.74248 6.99913 8.04871" stroke="#4154FF" stroke-width="1.3" stroke-linecap="round" stroke-linejoin="round"/>
<path fill-rule="evenodd" clip-rule="evenodd" d="M7.04395 9.1001C7.40638 9.1001 7.7002 9.39163 7.7002 9.75126V9.76143C7.7002 10.1211 7.40638 10.4126 7.04395 10.4126C6.68151 10.4126 6.3877 10.1211 6.3877 9.76143V9.75126C6.3877 9.39163 6.68151 9.1001 7.04395 9.1001Z" fill="#4154FF"/>
</g>
</svg>
